<?xml version="1.0" encoding="UTF-8"?>
<svg width="50mm" height="50mm" version="1.1" viewBox="0 0 50 50" xmlns="http://www.w3.org/2000/svg">
 <g transform="translate(0,-247)">
  <path d="m25 252c-2.5 0-3.75 1.25-3.75 2.5 0 0.625 0.625 1.875 1.875 2.5-3.75 3.75-10 11.25-10 17.5 0 3.75 2.5 7.5 5 8.75l-1.25 3.75h16.25l-1.25-3.75c2.5-1.25 5-5 5-8.75 0-6.25-6.25-13.75-10-17.5 1.25-0.625 1.875-1.875 1.875-2.5 0-1.25-1.25-2.5-3.75-2.5zm0 2.5c0.625 0 1.25 0.625 1.25 1.25s-0.625 1.25-1.25 1.25-1.25-0.625-1.25-1.25 0.625-1.25 1.25-1.25zm0 5c3.75 3.75 8.75 10 8.75 15 0 2.5-1.875 5-3.75 6.25l-1.25 0.625 0.625 1.875 0.625 1.875h-10l0.625-1.875 0.625-1.875-1.25-0.625c-1.875-1.25-3.75-3.75-3.75-6.25 0-5 5-11.25 8.75-15z" fill="#000" stroke <boltAction type="file" filePath="public/pieces/bb.svg">#000" stroke="#000" stroke-width=".5"/>
 </g>
</svg>