<?xml version="1.0" encoding="UTF-8"?>
<svg width="50mm" height="50mm" version="1.1" viewBox="0 0 50 50" xmlns="http://www.w3.org/2000/svg">
 <g transform="translate(0,-247)">
  <path d="m25 252c-1.25 0-2.5 0.625-3.75 1.875-2.5 2.5-3.75 5-3.75 7.5 0 1.25 0.625 2.5 1.25 3.75-5 1.25-8.75 5-8.75 10 0 3.75 2.5 7.5 6.25 8.75l-1.25 3.75h20l-1.25-3.75c3.75-1.25 6.25-5 6.25-8.75 0-5-3.75-8.75-8.75-10 0.625-1.25 1.25-2.5 1.25-3.75 0-2.5-1.25-5-3.75-7.5-1.25-1.25-2.5-1.875-3.75-1.875zm0 2.5c0.625 0 1.25 0.625 2.5 1.875 1.875 1.875 2.5 3.75 2.5 5 0 1.25-0.625 2.5-1.25 3.75l-1.25 1.875 2.5 0.625c3.75 0.625 6.25 3.75 6.25 7.5 0 2.5-1.875 5-3.75 6.25l-1.25 0.625 0.625 1.875 0.625 1.875h-15l0.625-1.875 0.625-1.875-1.25-0.625c-1.875-1.25-3.75-3.75-3.75-6.25 0-3.75 2.5-6.875 6.25-7.5l2.5-0.625-1.25-1.875c-0.625-1.25-1.25-2.5-1.25-3.75 0-1.25 0.625-3.125 2.5-5 1.25-1.25 1.875-1.875 2.5-1.875z" fill="#000" stroke="#000" stroke-width=".5"/>
 </g>
</svg>