<?xml version="1.0" encoding="UTF-8"?>
<svg width="50mm" height="50mm" version="1.1" viewBox="0 0 50 50" xmlns="http://www.w3.org/2000/svg">
 <g transform="translate(0,-247)">
  <path d="m25 252c-2.0775 0-3.75 1.6725-3.75 3.75 0 1.2465 0.4725 2.3325 1.25 3.125-3.75 1.875-6.25 5.625-6.25 10 0 2.5 0.625 4.375 1.875 6.25-5 2.5-8.125 7.5-8.125 13.125 0 2.5 0.625 4.375 1.875 6.25h26.25c1.25-1.875 1.875-3.75 1.875-6.25 0-5.625-3.125-10.625-8.125-13.125 1.25-1.875 1.875-3.75 1.875-6.25 0-4.375-2.5-8.125-6.25-10 0.7775-0.7925 1.25-1.8785 1.25-3.125 0-2.0775-1.6725-3.75-3.75-3.75zm0 2.5c0.625 0 1.25 0.625 1.25 1.25s-0.625 1.25-1.25 1.25-1.25-0.625-1.25-1.25 0.625-1.25 1.25-1.25zm0 5c5 0 8.75 3.75 8.75 8.75 0 2.5-0.625 3.75-1.875 5.625l-1.25 1.875 2.5 0.625c4.375 1.25 7.5 5.625 7.5 10 0 1.25-0.625 2.5-1.25 3.75h-28.75c-0.625-1.25-1.25-2.5-1.25-3.75 0-4.375 3.125-8.75 7.5-10l2.5-0.625-1.25-1.875c-1.25-1.875-1.875-3.125-1.875-5.625 0-5 3.75-8.75 8.75-8.75z" fill="#fff" stroke="#000" stroke-width=".5"/>
 </g>
</svg>